<svg width="100" height="101" viewBox="0 0 100 101" fill="none" xmlns="http://www.w3.org/2000/svg">
<rect y="94.7169" width="133" height="8" rx="1" transform="rotate(-45 0 94.7169)" fill="#0D0D0D"/>
<path d="M100 7C100 7.55228 99.5523 8 99 8L11 7.99999C10.4477 7.99999 10 7.55228 10 6.99999L10 1C10 0.447716 10.4477 2.77322e-07 11 3.25605e-07L99 8.01881e-06C99.5523 8.06709e-06 100 0.447723 100 1.00001L100 7Z" fill="#0D0D0D"/>
<path d="M99 1.19249e-08C99.5523 5.33895e-09 100 0.447715 100 1V89C100 89.5523 99.5523 90 99 90L93 90C92.4477 90 92 89.5523 92 89V1C92 0.447718 92.4477 9.00601e-08 93 8.34742e-08L99 1.19249e-08Z" fill="#0D0D0D"/>
</svg>
