<svg width="100" height="99" viewBox="0 0 100 99" fill="none" xmlns="http://www.w3.org/2000/svg">
<path d="M50 0C77.6142 0 100 22.3858 100 50C100 71.9048 85.9136 90.5182 66.3057 97.2793C65.14 97.1185 63.5013 96.668 63.501 95.3965V78.9482C63.5009 75.0009 60.2109 72.3691 60.2109 72.3691C60.2109 72.3691 82.58 68.4217 82.5801 48.6846C82.5799 41.458 77.3312 34.8877 77.3164 34.8691C77.3164 34.8691 78.8166 30.4985 78.6328 27.6318C78.4611 24.9549 76.6582 21.0527 76.6582 21.0527C76.6065 21.0595 71.6398 21.714 68.7637 23.0264C66.2489 24.1739 62.8787 26.9441 62.8428 26.9736C62.8144 26.9629 55.7276 24.284 51 24.3428C46.535 24.3984 39.8806 26.949 39.8164 26.9736C39.8129 26.9711 35.9992 24.1846 33.2373 23.0264C30.3066 21.7974 25.3418 21.0527 25.3418 21.0527C25.3418 21.0527 23.4358 24.9503 23.3682 27.6318C23.2943 30.5603 25.3418 34.8691 25.3418 34.8691C25.2893 34.9043 19.421 38.8604 19.4209 48.6846C19.4209 69.3485 41.79 72.3691 41.79 72.3691C41.79 73.027 39.1582 78.9481 33.2373 78.9482C26.0003 78.9482 23.368 68.4219 18.7627 68.4219C15.8486 68.422 14.1622 69.7352 14.1582 69.7383C22.0524 74.3435 20.7373 78.2903 24.6846 82.8955C28.6199 87.4868 38.44 86.8477 38.5 86.8438V95.3965C38.4994 97.3698 34.5527 97.3701 34.5527 97.3701C34.5628 97.3747 35.4274 97.763 36.9307 98.2744C15.6548 92.5284 0 73.0925 0 50C0 22.3858 22.3858 0 50 0Z" fill="#0D0D0D"/>
</svg>
