<svg width="100" height="100" viewBox="0 0 100 100" fill="none" xmlns="http://www.w3.org/2000/svg">
<path d="M50 0C77.6142 0 100 22.3858 100 50C100 77.6142 77.6142 100 50 100C22.3858 100 0 77.6142 0 50C0 22.3858 22.3858 0 50 0ZM22 76.9482H35.1582V40.1055H22V76.9482ZM63.4482 38.79C55.6613 38.79 53.634 43.9099 53.5801 44.0498V40.1055H40.4219V76.9482H53.5801V52.6016C53.6244 52.4503 54.9624 48 58.8428 48C62.7901 48 64.1064 49.974 64.1064 52.6055V76.9482H77.2637V52.6055C77.2636 44.7108 71.3429 38.7901 63.4482 38.79ZM28.5791 23C24.9456 23 22 25.9456 22 29.5791C22 33.2126 24.9456 36.1582 28.5791 36.1582C32.2125 36.1582 35.1582 33.2126 35.1582 29.5791C35.1582 25.9456 32.2126 23 28.5791 23Z" fill="#0D0D0D"/>
</svg>
