<svg width="100" height="75" viewBox="0 0 100 75" fill="none" xmlns="http://www.w3.org/2000/svg">
<path d="M66.5967 41.1758L98.5967 72.6758L98.9678 73.04C98.0538 74.2311 96.6173 75 95 75H5C3.3825 75 1.94516 74.2313 1.03125 73.04L1.40332 72.6758L33.0469 41.5254C34.9629 43.2246 36.4208 44.4715 37.1328 44.9824C39.5401 46.7099 42.5923 47.4623 44.8721 47.8076C46.0404 47.9846 47.0703 48.0635 47.8105 48.0986C48.1816 48.1162 48.483 48.1228 48.6953 48.125C48.8013 48.1261 48.8854 48.1263 48.9453 48.126C48.9714 48.1258 48.993 48.1252 49.0098 48.125C49.027 48.1252 49.0495 48.1258 49.0771 48.126C49.1386 48.1263 49.2257 48.1261 49.335 48.125C49.5533 48.1228 49.8633 48.1162 50.2451 48.0986C51.0068 48.0637 52.0662 47.985 53.2637 47.8086C55.5956 47.4651 58.7192 46.7159 61.1348 44.9824C61.9348 44.4083 63.7717 42.8714 66.2002 40.7852L66.5967 41.1758ZM100 68.4424L69.4033 38.3242L69.2363 38.1602C69.2381 38.1586 69.2404 38.1578 69.2422 38.1562C73.1917 34.7229 78.0746 30.4202 82.8271 26.2119C87.5805 22.003 92.2076 17.8857 95.6455 14.8203C97.3644 13.2876 98.786 12.0175 99.7783 11.1309C99.8548 11.0625 99.9287 10.9964 100 10.9326V68.4424ZM0.111328 11.0977C1.05636 11.9844 2.41093 13.2542 4.04883 14.7871C7.32454 17.8528 11.7351 21.9711 16.2725 26.1807C20.8088 30.3893 25.476 34.6938 29.2646 38.1289C29.5343 38.3734 29.8018 38.6121 30.0635 38.8486L0 68.4424V10.9932C0.0364566 11.0274 0.0735576 11.0622 0.111328 11.0977ZM95 0C97.7614 6.44256e-07 100 2.23858 100 5V5.56543L98.666 6.75977L98.6602 6.76562C98.6558 6.7695 98.6492 6.77549 98.6406 6.7832C98.6234 6.7986 98.5974 6.82123 98.5635 6.85156C98.4954 6.91247 98.3938 7.00299 98.2617 7.12109C97.9974 7.3575 97.609 7.70551 97.1133 8.14844C96.1219 9.03421 94.7009 10.3026 92.9834 11.834C89.5475 14.8975 84.9246 19.0129 80.1758 23.2178C75.4262 27.4234 70.5539 31.7163 66.6182 35.1377C62.6346 38.6007 59.7181 41.0754 58.8027 41.7324C57.1725 42.9023 54.8165 43.537 52.6807 43.8516C51.6444 44.0042 50.7223 44.0722 50.0615 44.1025C49.7322 44.1177 49.4704 44.1233 49.2949 44.125C49.2073 44.1259 49.1414 44.1262 49.0996 44.126C49.079 44.1259 49.0642 44.1251 49.0557 44.125H48.9639C48.956 44.1251 48.9422 44.1259 48.9229 44.126C48.8832 44.1262 48.8202 44.1259 48.7363 44.125C48.5684 44.1233 48.3169 44.1186 48 44.1035C47.3642 44.0733 46.4751 44.0045 45.4717 43.8525C43.4075 43.5399 41.1034 42.9083 39.4648 41.7324C38.571 41.0909 35.7796 38.6362 31.9512 35.165C28.1795 31.7453 23.5247 27.4542 18.9922 23.249C14.4607 19.0448 10.0554 14.9304 6.78223 11.8672C5.14576 10.3357 3.79261 9.0664 2.84863 8.18066C2.37665 7.7378 2.00651 7.39065 1.75488 7.1543C1.62916 7.03621 1.53256 6.94565 1.46777 6.88477C1.43556 6.8545 1.41091 6.8318 1.39453 6.81641C1.38632 6.80869 1.3801 6.8027 1.37598 6.79883L1.37012 6.79297L0 5.50391V5C0 2.23858 2.23858 4.0266e-08 5 0H95Z" fill="#0D0D0D"/>
</svg>
