<svg width="100" height="100" viewBox="0 0 100 100" fill="none" xmlns="http://www.w3.org/2000/svg">
<path d="M50 0C54.4374 0 58.7397 0.578186 62.8359 1.66309C47.5271 4.75311 36 18.2803 36 34.5C36 53.0015 50.9985 68 69.5 68C83.0315 68 94.6869 59.9761 99.9736 48.4277C99.9898 48.9499 100 49.474 100 50C100 77.6142 77.6142 100 50 100C22.3858 100 0 77.6142 0 50C0 22.3858 22.3858 0 50 0Z" fill="#0D0D0D"/>
<path d="M81.5621 10.5345C81.8843 9.66389 83.1157 9.66389 83.4379 10.5345L85.4465 15.9627C85.5478 16.2364 85.7636 16.4522 86.0373 16.5535L91.4655 18.5621C92.3361 18.8843 92.3361 20.1157 91.4655 20.4379L86.0373 22.4465C85.7636 22.5478 85.5478 22.7636 85.4465 23.0373L83.4379 28.4655C83.1157 29.3361 81.8843 29.3361 81.5621 28.4655L79.5535 23.0373C79.4522 22.7636 79.2364 22.5478 78.9627 22.4465L73.5345 20.4379C72.6639 20.1157 72.6639 18.8843 73.5345 18.5621L78.9627 16.5535C79.2364 16.4522 79.4522 16.2364 79.5535 15.9627L81.5621 10.5345Z" fill="#0D0D0D"/>
<path d="M66.0621 31.5345C66.3843 30.6639 67.6157 30.6639 67.9379 31.5345L68.7311 33.6781C68.8323 33.9518 69.0482 34.1677 69.3219 34.2689L71.4655 35.0621C72.3361 35.3843 72.3361 36.6157 71.4655 36.9379L69.3219 37.7311C69.0482 37.8323 68.8323 38.0482 68.7311 38.3219L67.9379 40.4655C67.6157 41.3361 66.3843 41.3361 66.0621 40.4655L65.2689 38.3219C65.1677 38.0482 64.9518 37.8323 64.6781 37.7311L62.5345 36.9379C61.6639 36.6157 61.6639 35.3843 62.5345 35.0621L64.6781 34.2689C64.9518 34.1677 65.1677 33.9518 65.2689 33.6781L66.0621 31.5345Z" fill="#0D0D0D"/>
</svg>
