<svg width="60" height="60" viewBox="0 0 60 60" fill="none" xmlns="http://www.w3.org/2000/svg">
<path d="M24.463 4.51392C25.7963 -1.38709 34.204 -1.38714 35.5372 4.51392C36.4012 8.33853 40.7902 10.157 44.1056 8.06372C49.2211 4.83339 55.167 10.7792 51.9366 15.8948C49.8435 19.21 51.6611 23.5991 55.4855 24.4631C61.3869 25.7962 61.3869 34.2043 55.4855 35.5374C51.661 36.4015 49.8433 40.7904 51.9366 44.1057C55.167 49.2212 49.2211 55.1671 44.1056 51.9368C40.7903 49.8434 36.4014 51.6612 35.5372 55.4856C34.2042 61.387 25.7961 61.387 24.463 55.4856C23.5989 51.6612 19.2099 49.8436 15.8947 51.9368C10.7791 55.1671 4.83327 49.2212 8.0636 44.1057C10.1569 40.7904 8.33841 36.4013 4.51379 35.5374C-1.38726 34.2042 -1.38721 25.7964 4.51379 24.4631C8.33832 23.5992 10.1567 19.2101 8.0636 15.8948C4.83327 10.7792 10.7791 4.83339 15.8947 8.06372C19.21 10.1568 23.5991 8.33844 24.463 4.51392ZM30.0001 16.0002C22.2681 16.0002 16.0001 22.2683 16.0001 30.0002C16.0003 37.7321 22.2682 44.0002 30.0001 44.0002C37.732 44.0002 44 37.7321 44.0001 30.0002C44.0001 22.2683 37.7321 16.0003 30.0001 16.0002Z" fill="#0D0D0D"/>
</svg>
