<svg width="100" height="93" viewBox="0 0 100 93" fill="none" xmlns="http://www.w3.org/2000/svg">
<path d="M33.3333 8.57447C29.473 4.03824 28 0 20.6667 0C14.6667 3.30834e-10 12.5177 3.23526 8.66667 6.59574C3.89994 10.7553 0 14.5106 0 19.7872C0.000145874 31 6.49913 44.5213 16 57.383C32.3877 79.5676 56 93 77.3333 93C87.3333 93 87.8659 91.1044 92.6667 86.4043C96.5705 82.5823 100 80.4681 100 73.8723C100 65.2979 93.3333 63.3191 90 61.3404C86.6667 59.3617 82 56.7234 78 56.7234C69.3333 56.7234 70.0487 63.0342 64 63.3191C56 63.3191 46.6667 53.4255 44.6667 51.4468C42.6667 49.4681 33.3333 40.234 33.3333 33.6383C33.5019 27.9916 39.3333 29.0213 39.3333 20.4468C39.3333 15.8298 36.7079 12.5398 33.3333 8.57447Z" fill="#0D0D0D"/>
</svg>
