<svg width="100" height="100" viewBox="0 0 100 100" fill="none" xmlns="http://www.w3.org/2000/svg">
<circle cx="50" cy="50" r="23" fill="#0D0D0D" stroke="#0D0D0D" stroke-width="4"/>
<rect x="48" y="85" width="4" height="15" rx="1" fill="#0D0D0D"/>
<rect x="15" y="48" width="4" height="15" rx="1" transform="rotate(90 15 48)" fill="#0D0D0D"/>
<rect x="76.1628" y="26.6655" width="4" height="15" rx="1" transform="rotate(-135 76.1628 26.6655)" fill="#0D0D0D"/>
<rect x="73.3345" y="76.1627" width="4" height="15" rx="1" transform="rotate(-45 73.3345 76.1627)" fill="#0D0D0D"/>
<rect x="48" width="4" height="15" rx="1" fill="#0D0D0D"/>
<rect x="100" y="48" width="4" height="15" rx="1" transform="rotate(90 100 48)" fill="#0D0D0D"/>
<rect x="16.0588" y="86.7695" width="4" height="15" rx="1" transform="rotate(-135 16.0588 86.7695)" fill="#0D0D0D"/>
<rect x="13.2305" y="16.0587" width="4" height="15" rx="1" transform="rotate(-45 13.2305 16.0587)" fill="#0D0D0D"/>
</svg>
